<svg id="图层_1" data-name="图层 1" xmlns="http://www.w3.org/2000/svg" viewBox="0 0 1895 1015"><title>海报</title><rect x="44.11" y="346.8" width="163.22" height="460.08"/><path d="M425.32,406h1.8q28.69-41.24,64.12-57.39t83-16.15q93.27,0,133.18,52.92t39.91,138.11v283.4H584.06V555.77q0-9-.89-17.94A112.65,112.65,0,0,0,567,486.26q-14.35-23.75-56.5-23.77-49.33,0-67.26,31.84t-17.94,74.89V806.88H262.1V346.8H425.32Z"/><polygon points="1217.3 806.88 1054.07 806.88 1054.07 481.33 1001.16 481.33 1001.16 346.8 1054.07 346.8 1054.07 208.69 1217.3 208.69 1217.3 346.8 1309.67 346.8 1309.67 481.33 1217.3 481.33 1217.3 806.88"/><path d="M1596.44,328.14q111.19.9,194.16,65t83,181.61q0,116.6-83,180.26t-194.16,63.68q-110.31,0-193.72-63.23t-83.4-180.71q0-117.48,83-181.61T1596.44,329Zm0,153.28a92,92,0,1,0,92,92A92,92,0,0,0,1596.44,481.42Z"/></svg>